<?xml version="1.0" encoding="utf-8"?>
<!-- Generator: Adobe Illustrator 22.1.0, SVG Export Plug-In . SVG Version: 6.00 Build 0)  -->
<svg version="1.1" id="Layer_1" xmlns="http://www.w3.org/2000/svg" xmlns:xlink="http://www.w3.org/1999/xlink" x="0px" y="0px"
	 viewBox="0 0 566 128" style="enable-background:new 0 0 566 128;" xml:space="preserve">
<style type="text/css">
	.st0{fill:#387498;}
	.st1{fill:#437396;}
	.st2{fill:#FFFFFF;stroke:#387498;stroke-width:8;}
	.st3{fill:#387498;stroke:#387498;stroke-width:8;}
	.st4{fill:#FFFFFF;}
</style>
<rect x="181" y="27" class="st0" width="26" height="86.2"/>
<title>Logo</title>
<desc>Created with Sketch.</desc>
<g id="Logo">
	<g id="final-final" transform="translate(3.000000, -101.000000)">
		<g id="BRIGADE-TEXT" transform="translate(0.000000, 114.000000)">
			<path id="BIRDAGE" class="st0" d="M0,1.8h35.5c5.2,0,10,0.4,14.5,1.1s8.5,2,11.8,3.9s6,4.3,8,7.5s3,7.2,3,12
				c0,2.1-0.3,4.3-0.9,6.4c-0.6,2.2-1.6,4.2-3,6.2s-3.1,3.7-5.2,5.2s-4.5,2.6-7.4,3.3V48c7,1.4,12.2,4,15.7,7.6s5.2,8.8,5.2,15.4
				c0,5-1,9.4-3.1,13.1s-4.8,6.7-8.3,9.1s-7.6,4.1-12.4,5.2c-4.7,1.1-9.8,1.7-15,1.7H0V1.8z M34.9,40.6c4.2,0,7.4-1,9.4-2.9
				s3-4.4,3-7.4s-1-5.2-3-6.5s-5.2-2-9.4-2h-8.8v18.8H34.9z M36.7,80.2c10.1,0,15.2-3.7,15.2-11.2c0-3.6-1.2-6.3-3.7-7.9
				s-6.3-2.4-11.4-2.4H26.1v21.5H36.7z M113.3,46.6h9.4c10.5,0,15.8-4.3,15.8-13c0-4.2-1.3-7.2-4-8.8c-2.7-1.6-6.6-2.4-11.7-2.4
				h-9.4L113.3,46.6L113.3,46.6z M140.3,100.2l-17-33h-10v33H87.2V1.8h37.3c5.3,0,10.3,0.5,15.1,1.5s9,2.7,12.6,5.1s6.4,5.7,8.6,9.8
				c2.1,4.1,3.2,9.2,3.2,15.4c0,7.1-1.4,12.9-4.3,17.6S152.9,59.4,148,62l21.4,38.1L140.3,100.2L140.3,100.2z M286.9,43
				c4.7,0.8,7.5,3.4,8.5,7.9v39c-3.6,3.3-8.5,6.2-14.5,8.6s-12.5,3.6-19.5,3.6c-6.8,0-13.1-1-19.1-3.1s-11.2-5.2-15.6-9.4
				s-8-9.4-10.5-15.7s-3.9-13.6-3.9-22c0-8.3,1.3-15.6,3.9-22c2.6-6.4,6.2-11.8,10.8-16.2s9.8-7.7,15.8-10.1
				c6-2.3,12.4-3.5,19.2-3.5c7,0,13.1,1.3,18.3,3.9s9.6,5.6,13.2,9.2l-14.2,16c-2.4-2.1-4.9-3.8-7.4-4.9c-2.5-1.2-5.7-1.7-9.6-1.7
				c-3.3,0-6.4,0.7-9.2,2s-5.3,3.2-7.4,5.6c-2.1,2.4-3.8,5.4-4.9,8.9c-1.2,3.5-1.7,7.5-1.7,12c0,9.3,2.1,16.4,6.2,21.3
				s10.7,7.4,19.6,7.4c1.4,0,2.8-0.2,4.2-0.5s2.5-0.8,3.4-1.4V64.2H258V43H286.9z M354.5,59.2l-1.7-6.8c-1.2-4.7-2.4-9.9-3.6-15.4
				s-2.4-10.8-3.6-15.7H345c-1.1,5-2.2,10.3-3.4,15.8c-1.2,5.5-2.3,10.6-3.6,15.4l-1.7,6.8L354.5,59.2L354.5,59.2z M359.2,79.3
				h-27.6l-4.8,20.9h-26.7l30-98.4h31.5l30,98.4H364L359.2,79.3z M415.8,1.8h16.4c7.5,0,14.3,0.9,20.5,2.7s11.5,4.7,16,8.6
				s7.9,9,10.4,15.1c2.5,6.2,3.7,13.6,3.7,22.2s-1.2,16.1-3.6,22.4s-5.8,11.4-10.2,15.4s-9.6,7-15.6,8.9s-12.6,2.9-19.6,2.9h-17.9
				V89.4L403.1,88V14.8h12.7L415.8,1.8L415.8,1.8z M430.7,79.3h-1.5V22.7h1.5c3.5,0,6.9,0.4,10,1.1c3.1,0.8,5.8,2.1,8.1,4.2
				s4.1,4.8,5.4,8.5s2,8.3,2,14.1s-0.7,10.5-2,14.2s-3.1,6.7-5.4,8.8c-2.3,2.1-5,3.6-8.1,4.5C437.5,78.9,434.2,79.3,430.7,79.3z
				 M496.8,1.8h63.7v21.8h-37.6V39H555v21.8h-32.1v17.6H562v21.8h-65.2V1.8z"/>
			<g id="fills" transform="translate(172.000000, 88.000000)">
			</g>
			
				<g id="i" transform="translate(191.000000, 57.500000) scale(1, -1) translate(-191.000000, -57.500000) translate(178.000000, 2.000000)">
				<polygon id="Rectangle-8" class="st1" points="0,99 26,99 26,99 				"/>
				<circle id="Oval-5_3_" class="st2" cx="13" cy="13" r="9"/>
				<circle id="Oval-5_4_" class="st3" cx="13" cy="98" r="9"/>
			</g>
			<g id="d" transform="translate(402.599976, 1.000000)">
				<g id="Group-5" transform="translate(0.446688, 0.354298)">
					<circle id="Oval-5_5_" class="st2" cx="13.4" cy="13.9" r="9.4"/>
					<ellipse id="Oval-5_6_" class="st3" cx="12.9" cy="86" rx="8.9" ry="9.1"/>
				</g>
			</g>
		</g>
	</g>
</g>
<path class="st4" d="M434.7,92.3h-1.5V35.7h1.5c3.5,0,6.9,0.4,10,1.1c3.1,0.8,5.8,2.1,8.1,4.2s4.1,4.8,5.4,8.5s2,8.3,2,14.1
	s-0.7,10.5-2,14.2s-3.1,6.7-5.4,8.8c-2.3,2.1-5,3.6-8.1,4.5C441.5,91.9,438.2,92.3,434.7,92.3z"/>
</svg>
