<?xml version="1.0" encoding="UTF-8"?>
<svg width="562px" height="359px" viewBox="0 0 562 359" version="1.1" xmlns="http://www.w3.org/2000/svg" xmlns:xlink="http://www.w3.org/1999/xlink">
    <!-- Generator: Sketch 51.2 (57519) - http://www.bohemiancoding.com/sketch -->
    <title>brigade-logo</title>
    <desc>Created with Sketch.</desc>
    <defs>
        <polygon id="path-1" points="33.2667861 0.206507095 0.555848566 19.6967415 28.7335829 69.1928352 16.9113173 111.786585 190.061708 100.616663 222.003114 66.8822883 214.430849 15.5424446 65.7492079 23.5932258"></polygon>
        <polygon id="path-3" points="0.505067316 36.6342415 24.8351454 106.970179 99.7003798 116.755335 220.299989 124.17721 224.239442 42.9213508 152.95038 9.4643196 14.4699111 0.507288345"></polygon>
    </defs>
    <g id="Page-1" stroke="none" stroke-width="1" fill="none" fill-rule="evenodd">
        <g id="brigade-logo">
            <g id="bottom-nodes" transform="translate(80.000000, 0.000000)">
                <g id="dotted-arc" transform="translate(205.994933, 308.550257) scale(-1, 1) rotate(-180.000000) translate(-205.994933, -308.550257) translate(94.494933, 252.550257)">
                    <g id="Clipped">
                        <g id="Shape-Clipped">
                            <mask id="mask-2" fill="white">
                                <use xlink:href="#path-1"></use>
                            </mask>
                            <g id="path-1"></g>
                            <path d="M124.041353,285.030454 C188.256627,285.030454 240.313392,232.973689 240.313392,168.758415 C240.313392,104.543141 188.256627,52.4863759 124.041353,52.4863759 C59.8260792,52.4863759 7.76931399,104.543141 7.76931399,168.758415 C7.76931399,232.973689 59.8260792,285.030454 124.041353,285.030454 Z" id="Shape" stroke="#27759A" stroke-width="8" stroke-linecap="round" stroke-linejoin="round" stroke-dasharray="9.999999999999998,20" mask="url(#mask-2)" transform="translate(124.041353, 168.758415) rotate(109.000000) translate(-124.041353, -168.758415) "></path>
                        </g>
                    </g>
                </g>
                <rect id="Rectangle" fill="#FFFFFF" fill-rule="nonzero" x="0" y="0" width="457" height="252"></rect>
                <g id="Group-7" transform="translate(134.000000, 281.000000)" stroke="#387498">
                    <path d="M28.0996788,8.05141906 L2.2153335,41.9853724" id="Path-4" stroke-width="10" stroke-linecap="round" transform="translate(15.157506, 25.018396) rotate(-7.000000) translate(-15.157506, -25.018396) "></path>
                    <path d="M149.030328,6.7167665 L170.586227,43.5522894" id="Path-4" stroke-width="10" stroke-linecap="round"></path>
                    <path d="M80.3139324,29.4630162 L80.3139324,72.1448816" id="Path-5" stroke-width="10" stroke-linecap="round"></path>
                    <circle id="Oval-5" stroke-width="8" fill="#FFFFFF" fill-rule="nonzero" cx="22.1855676" cy="12.1597646" r="7.66624339"></circle>
                    <circle id="Oval-5" stroke-width="8" fill="#FFFFFF" fill-rule="nonzero" cx="80.7717163" cy="30.4380552" r="9.8486711"></circle>
                    <circle id="Oval-5" stroke-width="8" fill="#B9E884" fill-rule="nonzero" cx="153.864838" cy="12.9053257" r="12.033004"></circle>
                </g>
            </g>
            <g id="top-nodes" transform="translate(293.500000, 135.500000) rotate(180.000000) translate(-293.500000, -135.500000) translate(65.000000, 21.000000)">
                <g id="dotted-arc" transform="translate(199.994933, 166.050257) scale(-1, 1) rotate(-180.000000) translate(-199.994933, -166.050257) translate(87.494933, 103.550257)">
                    <g id="Clipped">
                        <g id="Shape-Clipped">
                            <mask id="mask-4" fill="white">
                                <use xlink:href="#path-3"></use>
                            </mask>
                            <g id="path-3"></g>
                            <path d="M141.041353,275.030454 C205.256627,275.030454 257.313392,222.973689 257.313392,158.758415 C257.313392,94.543141 205.256627,42.4863759 141.041353,42.4863759 C76.8260791,42.4863759 24.769314,94.543141 24.769314,158.758415 C24.769314,222.973689 76.8260791,275.030454 141.041353,275.030454 Z" id="Shape" stroke="#27759A" stroke-width="8" stroke-linecap="round" stroke-linejoin="round" stroke-dasharray="10,20" mask="url(#mask-4)" transform="translate(141.041353, 158.758415) rotate(125.000000) translate(-141.041353, -158.758415) "></path>
                        </g>
                    </g>
                </g>
                <rect id="Rectangle" fill="#FFFFFF" fill-rule="nonzero" x="0" y="0" width="457" height="119"></rect>
                <g id="Group-7" transform="translate(146.000000, 155.000000)" stroke="#387498">
                    <path d="M28.0996788,10.0514191 L2.2153335,43.9853724" id="Path-4" stroke-width="10" stroke-linecap="round" transform="translate(15.157506, 27.018396) rotate(-7.000000) translate(-15.157506, -27.018396) "></path>
                    <path d="M150.030328,6.7167665 L171.586227,43.5522894" id="Path-4" stroke-width="10" stroke-linecap="round"></path>
                    <path d="M81.3139324,29.4630162 L81.3139324,72.1448816" id="Path-5" stroke-width="10" stroke-linecap="round"></path>
                    <circle id="Oval-5" stroke-width="8" fill="#FFFFFF" fill-rule="nonzero" cx="22.1855676" cy="14.1597646" r="7.66624339"></circle>
                    <circle id="Oval-5" stroke-width="8" fill="#FFFFFF" fill-rule="nonzero" cx="81.7717163" cy="30.4380552" r="9.8486711"></circle>
                    <circle id="Oval-5" stroke-width="8" fill="#F48996" fill-rule="nonzero" cx="154.864838" cy="12.9053257" r="12.033004"></circle>
                </g>
            </g>
            <g id="BRIGADE-TEXT" transform="translate(0.000000, 135.000000)" fill-rule="nonzero">
                <path d="M0,1.81602374 L35.4644803,1.81602374 C40.6174648,1.81602374 45.4672597,2.19435823 50.0140107,2.95103858 C54.5607617,3.70771892 58.5012201,4.9940562 61.8355042,6.81008902 C65.1697882,8.62612184 67.8220198,11.1231295 69.7922786,14.3011869 C71.7625374,17.4792444 72.747652,21.48959 72.747652,26.3323442 C72.747652,28.4510492 72.4445398,30.5949446 71.8383063,32.764095 C71.2320728,34.9332453 70.2469582,37.0014738 68.882933,38.9688427 C67.5189077,40.9362116 65.8012719,42.6765503 63.7299743,44.189911 C61.6586766,45.7032717 59.2085198,46.8130528 56.3794303,47.5192878 L56.3794303,48.1246291 C63.3511151,49.5370991 68.5798003,52.0845513 72.0656427,55.7670623 C75.5514851,59.4495733 77.2943802,64.5697001 77.2943802,71.1275964 C77.2943802,76.172132 76.2587469,80.5355899 74.1874492,84.2181009 C72.1161516,87.9006119 69.3376232,90.9272878 65.8517808,93.2982196 C62.3659384,95.6691513 58.2486645,97.40949 53.4998357,98.5192878 C48.7510069,99.6290857 43.7496559,100.183976 38.4956325,100.183976 L0,100.183976 L0,1.81602374 Z M34.8582499,40.5578635 C39.1018841,40.5578635 42.2340434,39.5994161 44.2548216,37.6824926 C46.2755998,35.7655691 47.2859738,33.2937837 47.2859738,30.2670623 C47.2859738,27.2403409 46.2755998,25.0712232 44.2548216,23.7596439 C42.2340434,22.4480647 39.1018841,21.7922849 34.8582499,21.7922849 L26.0679086,21.7922849 L26.0679086,40.5578635 L34.8582499,40.5578635 Z M36.6769412,80.2077151 C46.7808323,80.2077151 51.832702,76.4748148 51.832702,69.0089021 C51.832702,65.3768364 50.5949939,62.7537173 48.1195406,61.1394659 C45.6440873,59.5252145 41.8299256,58.7181009 36.6769412,58.7181009 L26.0679086,58.7181009 L26.0679086,80.2077151 L36.6769412,80.2077151 Z M113.309979,46.611276 L122.706551,46.611276 C133.214598,46.611276 138.468542,42.2730404 138.468542,33.5964392 C138.468542,29.3590293 137.129797,26.4332425 134.452265,24.8189911 C131.774734,23.2047397 127.859535,22.3976261 122.706551,22.3976261 L113.309979,22.3976261 L113.309979,46.611276 Z M140.287233,100.183976 L123.312781,67.1928783 L113.309979,67.1928783 L113.309979,100.183976 L87.2420705,100.183976 L87.2420705,1.81602374 L124.525242,1.81602374 C129.779265,1.81602374 134.805876,2.32046973 139.605224,3.32937685 C144.404572,4.33828398 148.597624,6.05340036 152.184506,8.47477745 C155.771387,10.8961545 158.625693,14.1498312 160.747511,18.235905 C162.869328,22.3219789 163.93022,27.4421057 163.93022,33.5964392 C163.93022,40.658789 162.490437,46.5103626 159.610828,51.1513353 C156.731219,55.7923081 152.866539,59.4243192 148.016671,62.0474777 L169.386294,100.183976 L140.287233,100.183976 Z M286.866779,42.9792285 C291.522036,43.7676636 294.346024,46.403874 295.338743,50.8878597 L295.338743,89.8931751 C291.701343,93.2225686 286.876807,96.0726884 280.864992,98.4436202 C274.853177,100.814552 268.361524,102 261.389839,102 C254.620232,102 248.254876,100.965886 242.29358,98.8976261 C236.332285,96.8293665 231.128859,93.7018014 226.683147,89.5148368 C222.237435,85.3278722 218.726385,80.0816339 216.149893,73.7759644 C213.573401,67.4702949 212.285174,60.1306057 212.285174,51.7566766 C212.285174,43.4836382 213.59866,36.1439489 216.225672,29.7373887 C218.852684,23.3308285 222.439511,17.9332564 226.986262,13.5445104 C231.533013,9.15576441 236.812217,5.80119855 242.824032,3.48071217 C248.835847,1.16022579 255.226463,0 261.99607,0 C268.967754,0 275.080517,1.28633728 280.33454,3.85905045 C285.588564,6.43176361 289.98369,9.48366187 293.520052,13.0148368 L279.273637,29.0563798 C276.848703,26.9376749 274.398546,25.2982254 271.923093,24.1379822 C269.44764,22.977739 266.239702,22.3976261 262.299185,22.3976261 C258.964901,22.3976261 255.88326,23.0534059 253.054171,24.3649852 C250.225081,25.6765644 247.749665,27.5430146 245.627848,29.9643917 C243.506031,32.3857688 241.864173,35.3620001 240.702226,38.8931751 C239.540278,42.42435 238.959313,46.4094734 238.959313,50.8486647 C238.959313,60.1306102 241.03058,67.2432987 245.173175,72.1869436 C249.31577,77.1305885 255.832682,79.6023739 264.724107,79.6023739 C266.138651,79.6023739 267.527915,79.4510401 268.891941,79.148368 C270.255966,78.8456958 271.392637,78.3916944 272.301987,77.7863501 L272.301987,64.1661721 L257.752457,64.1661721 L257.752457,42.9792285 L286.866779,42.9792285 Z M354.46854,59.1721068 L352.801407,52.3620178 C351.58894,47.6201543 350.376491,42.4748052 349.164024,36.925816 C347.951557,31.3768269 346.739108,26.1305885 345.526642,21.1869436 L344.920411,21.1869436 C343.808983,26.2314792 342.672312,31.5029399 341.510365,37.0014837 C340.348417,42.5000275 339.161228,47.6201543 337.948761,52.3620178 L336.281627,59.1721068 L354.46854,59.1721068 Z M359.166826,79.2997033 L331.583342,79.2997033 L326.733498,100.183976 L300.059359,100.183976 L330.067765,1.81602374 L361.591748,1.81602374 L391.600154,100.183976 L364.01667,100.183976 L359.166826,79.2997033 Z M415.803711,1.81602374 L432.179902,1.81602374 C439.656781,1.81602374 446.502065,2.72402653 452.715958,4.54005935 C458.929851,6.35609217 464.259574,9.23143433 468.705286,13.1661721 C473.150998,17.1009099 476.611528,22.1453698 479.086982,28.2997033 C481.562435,34.4540367 482.800143,41.8693928 482.800143,50.5459941 C482.800143,59.2225953 481.587694,66.688396 479.162761,72.9436202 C476.737827,79.1988443 473.327815,84.3441935 468.932622,88.379822 C464.537429,92.4154504 459.334004,95.3916818 453.322188,97.3086053 C447.310373,99.2255289 440.768202,100.183976 433.695478,100.183976 L415.803711,100.183976 L415.803711,89.3642578 L403.080841,87.9836895 L403.080841,14.7929347 L415.803711,14.7929347 L415.803711,1.81602374 Z M430.664326,79.2997033 L429.14875,79.2997033 L429.14875,22.7002967 L430.664326,22.7002967 C434.200688,22.7002967 437.534922,23.0786312 440.667128,23.8353116 C443.799334,24.5919919 446.502085,25.9792184 448.77546,27.9970326 C451.048836,30.0148469 452.842249,32.8397445 454.155755,36.4718101 C455.469261,40.1038757 456.126004,44.7952235 456.126004,50.5459941 C456.126004,56.2967647 455.469261,61.038557 454.155755,64.7715134 C452.842249,68.5044697 451.048836,71.4302565 448.77546,73.5489614 C446.502085,75.6676664 443.799334,77.1557821 440.667128,78.0133531 C437.534922,78.8709242 434.200688,79.2997033 430.664326,79.2997033 Z M496.830228,1.81602374 L560.484424,1.81602374 L560.484424,23.6083086 L522.898137,23.6083086 L522.898137,39.0445104 L555.02835,39.0445104 L555.02835,60.8367953 L522.898137,60.8367953 L522.898137,78.3916914 L562,78.3916914 L562,100.183976 L496.830228,100.183976 L496.830228,1.81602374 Z" id="BIRDAGE" fill="#387498"></path>
                <path d="M430.664326,79.2997033 L429.14875,79.2997033 L429.14875,22.7002967 L430.664326,22.7002967 C434.200688,22.7002967 437.534922,23.0786312 440.667128,23.8353116 C443.799334,24.5919919 446.502085,25.9792184 448.77546,27.9970326 C451.048836,30.0148469 452.842249,32.8397445 454.155755,36.4718101 C455.469261,40.1038757 456.126004,44.7952235 456.126004,50.5459941 C456.126004,56.2967647 455.469261,61.038557 454.155755,64.7715134 C452.842249,68.5044697 451.048836,71.4302565 448.77546,73.5489614 C446.502085,75.6676664 443.799334,77.1557821 440.667128,78.0133531 C437.534922,78.8709242 434.200688,79.2997033 430.664326,79.2997033 Z" id="BIRDAGE-path" fill="#FFFFFF"></path>
                <g id="i" transform="translate(191.000000, 57.500000) scale(-1, 1) rotate(-180.000000) translate(-191.000000, -57.500000) translate(178.000000, 6.000000)">
                    <rect id="Rectangle-8" fill="#437396" x="0" y="9" width="26" height="86"></rect>
                    <circle id="Oval-5" stroke="#387498" stroke-width="8" fill="#FFFFFF" cx="13" cy="9" r="9"></circle>
                    <circle id="Oval-5" stroke="#387498" stroke-width="8" fill="#387498" cx="13" cy="94" r="9"></circle>
                </g>
                <g id="d" transform="translate(406.599976, 5.000000)" stroke="#387498" stroke-width="8">
                    <g id="Group-5" transform="translate(0.446688, 0.354298)">
                        <circle id="Oval-5" fill="#FFFFFF" transform="translate(9.375000, 9.880653) scale(-1, 1) rotate(-180.000000) translate(-9.375000, -9.880653) " cx="9.375" cy="9.8806529" r="9.375"></circle>
                        <ellipse id="Oval-5" fill="#387498" transform="translate(8.935884, 81.999363) scale(-1, 1) rotate(-180.000000) translate(-8.935884, -81.999363) " cx="8.9358844" cy="81.9993632" rx="8.9358844" ry="9.09984272"></ellipse>
                    </g>
                </g>
            </g>
        </g>
    </g>
</svg>