<?xml version="1.0" encoding="UTF-8"?>
<svg width="121px" height="118px" viewBox="0 0 121 118" version="1.1" xmlns="http://www.w3.org/2000/svg" xmlns:xlink="http://www.w3.org/1999/xlink">
    <!-- Generator: Sketch 51.3 (57544) - http://www.bohemiancoding.com/sketch -->
    <title>Fill 5</title>
    <desc>Created with Sketch.</desc>
    <defs></defs>
    <g id="Page-1" stroke="none" stroke-width="1" fill="none" fill-rule="evenodd">
        <path d="M60.388,0 C27.041,0 0,27.036 0,60.388 C0,87.069 17.303,109.705 41.297,117.69 C44.315,118.249 45.423,116.38 45.423,114.785 C45.423,113.345 45.367,108.588 45.341,103.542 C28.541,107.195 24.996,96.417 24.996,96.417 C22.249,89.437 18.291,87.581 18.291,87.581 C12.812,83.833 18.704,83.91 18.704,83.91 C24.768,84.336 27.961,90.133 27.961,90.133 C33.347,99.365 42.088,96.696 45.534,95.153 C46.076,91.25 47.641,88.586 49.368,87.078 C35.955,85.551 21.855,80.373 21.855,57.234 C21.855,50.641 24.214,45.254 28.077,41.025 C27.45,39.504 25.383,33.362 28.662,25.044 C28.662,25.044 33.733,23.421 45.273,31.234 C50.09,29.896 55.256,29.225 60.388,29.202 C65.52,29.225 70.69,29.896 75.516,31.234 C87.042,23.421 92.106,25.044 92.106,25.044 C95.393,33.362 93.325,39.504 92.698,41.025 C96.57,45.254 98.913,50.641 98.913,57.234 C98.913,80.428 84.786,85.535 71.339,87.03 C73.505,88.904 75.435,92.579 75.435,98.213 C75.435,106.293 75.365,112.796 75.365,114.785 C75.365,116.392 76.452,118.275 79.513,117.682 C103.494,109.688 120.775,87.06 120.775,60.388 C120.775,27.036 93.738,0 60.388,0" id="Fill-5" fill="#161514"></path>
    </g>
</svg>